<svg width="32" height="32" viewBox="0 0 32 32" fill="none" xmlns="http://www.w3.org/2000/svg">
<g clip-path="url(#clip0_2232_1171)">
<rect width="32" height="32" fill="#8049F5"/>
<path d="M16.2422 16.3569H11.0171L10.9888 14.1621H15.7324C16.516 14.1621 17.2004 14.0299 17.7856 13.7656C18.3709 13.5013 18.8241 13.1237 19.145 12.6328C19.4754 12.1325 19.6406 11.5378 19.6406 10.8486C19.6406 10.0934 19.4943 9.47982 19.2017 9.00781C18.9185 8.52637 18.4795 8.17708 17.8848 7.95996C17.2995 7.7334 16.5537 7.62012 15.6475 7.62012H11.626V26H8.89307V5.38281H15.6475C16.7048 5.38281 17.6488 5.49137 18.4795 5.7085C19.3102 5.91618 20.0135 6.24658 20.5894 6.69971C21.1746 7.14339 21.6183 7.7098 21.9204 8.39893C22.2225 9.08805 22.3735 9.91406 22.3735 10.877C22.3735 11.7266 22.1564 12.4959 21.7222 13.1851C21.2879 13.8647 20.6838 14.4217 19.9097 14.856C19.145 15.2902 18.2482 15.5687 17.2192 15.6914L16.2422 16.3569ZM16.1147 26H9.94092L11.4844 23.7769H16.1147C16.9832 23.7769 17.7196 23.6258 18.3237 23.3237C18.9373 23.0216 19.4046 22.5968 19.7256 22.0493C20.0465 21.4924 20.207 20.8363 20.207 20.0811C20.207 19.3164 20.0701 18.6556 19.7964 18.0986C19.5226 17.5417 19.0931 17.1121 18.5078 16.8101C17.9225 16.508 17.1673 16.3569 16.2422 16.3569H12.3481L12.3765 14.1621H17.7007L18.2812 14.9551C19.2725 15.04 20.1126 15.3232 20.8018 15.8047C21.4909 16.2767 22.0148 16.8809 22.3735 17.6172C22.7417 18.3535 22.9258 19.1654 22.9258 20.0527C22.9258 21.3366 22.6426 22.4222 22.0762 23.3096C21.5192 24.1875 20.731 24.8577 19.7114 25.3203C18.6919 25.7734 17.493 26 16.1147 26Z" fill="white"/>
</g>
<defs>
<clipPath id="clip0_2232_1171">
<rect width="32" height="32" fill="white"/>
</clipPath>
</defs>
</svg>
