<svg width="249" height="514" viewBox="0 0 249 514" fill="none" xmlns="http://www.w3.org/2000/svg">
    <g opacity="0.03">
    <g clip-path="url(#clip0_1191_1718)">
    <path fill-rule="evenodd" clip-rule="evenodd" d="M0 0H60.1459H107.522H170.245C173.61 0 176.338 2.72778 176.338 6.09267C176.338 9.45756 173.61 12.1853 170.245 12.1853H107.522V12.5671H69.7393C66.269 12.5671 63.4557 15.3804 63.4557 18.8507C63.4557 22.321 66.269 25.1343 69.7393 25.1343H107.522V25.4785H109.989C113.354 25.4785 116.082 28.2062 116.082 31.5711C116.082 34.936 113.354 37.6638 109.989 37.6638H107.522V37.7015H55.4424C51.972 37.7015 49.1588 40.5147 49.1588 43.985C49.1588 47.4553 51.9721 50.2686 55.4424 50.2686H133.917C136.439 51.2123 138.235 53.6443 138.235 56.4957C138.235 59.4692 136.282 61.9866 133.589 62.8357H95.0039C91.5336 62.8357 88.7203 65.649 88.7203 69.1193C88.7203 72.5896 91.5336 75.4029 95.0039 75.4029H130.445C133.353 75.8636 135.576 78.3822 135.576 81.4202C135.576 84.7851 132.849 87.5129 129.484 87.5129H107.522V87.9701H66.4099C62.9395 87.9701 60.1263 90.7833 60.1263 94.2536C60.1263 97.724 62.9395 100.537 66.4099 100.537H107.522V100.806H125.053C128.418 100.806 131.146 103.534 131.146 106.899C131.146 110.264 128.418 112.991 125.053 112.991H107.522V113.104H83.0571C79.5868 113.104 76.7736 115.918 76.7736 119.388C76.7736 122.858 79.5868 125.671 83.0571 125.671L107.522 125.671H175.074C178.544 125.671 181.357 128.485 181.357 131.955C181.357 135.425 178.544 138.239 175.074 138.239L107.522 138.239L60.1424 138.239L60.1284 138.239H0V0ZM182.353 50.2686C178.883 50.2686 176.07 53.0818 176.07 56.5522C176.07 60.0225 178.883 62.8357 182.353 62.8357H202.101C205.572 62.8357 208.385 60.0225 208.385 56.5522C208.385 53.0818 205.572 50.2686 202.101 50.2686H182.353Z" fill="#37DEAD"/>
    </g>
    <g clip-path="url(#clip1_1191_1718)">
    <path fill-rule="evenodd" clip-rule="evenodd" d="M0 125.177H60.1423H107.522H132.378C135.849 125.177 138.662 127.99 138.662 131.46C138.662 134.931 135.849 137.744 132.378 137.744H107.522H69.7393C66.269 137.744 63.4557 140.557 63.4557 144.027C63.4557 147.498 66.269 150.311 69.7393 150.311L107.522 150.311H125.328L125.333 150.311C128.801 150.314 131.611 153.126 131.611 156.595C131.611 160.061 128.805 162.872 125.34 162.878H55.4424C51.972 162.878 49.1588 165.691 49.1588 169.162C49.1588 172.632 51.9721 175.445 55.4424 175.445L107.522 175.445H155.097C158.567 175.445 161.381 178.259 161.381 181.729C161.381 185.198 158.569 188.01 155.101 188.012L155.097 188.012L155.097 188.012H107.522L95.0039 188.012C91.5336 188.012 88.7203 190.826 88.7203 194.296C88.7203 197.766 91.5336 200.58 95.0039 200.58H155.097L155.114 200.58H189.371C192.841 200.58 195.655 203.393 195.655 206.863C195.655 210.334 192.841 213.147 189.371 213.147H107.522L66.4098 213.147C62.9395 213.147 60.1263 215.96 60.1263 219.43C60.1263 222.901 62.9395 225.714 66.4098 225.714H107.522H155.097H181.146C184.616 225.714 187.429 228.527 187.429 231.998C187.429 235.468 184.616 238.281 181.146 238.281L155.097 238.281L107.522 238.281L83.0572 238.281C79.5868 238.281 76.7736 241.094 76.7736 244.565C76.7736 248.035 79.5868 250.848 83.0571 250.848L107.522 250.848H175.074C178.544 250.848 181.357 253.661 181.357 257.132C181.357 260.602 178.544 263.415 175.074 263.415H107.522H60.1423H0V125.177ZM182.353 175.445C178.883 175.445 176.07 178.259 176.07 181.729C176.07 185.199 178.883 188.012 182.353 188.012H202.101C205.572 188.012 208.385 185.199 208.385 181.729C208.385 178.259 205.572 175.445 202.101 175.445H182.353Z" fill="#37DEAD"/>
    </g>
    <g clip-path="url(#clip2_1191_1718)">
    <path fill-rule="evenodd" clip-rule="evenodd" d="M0 250.353H60.1459H107.522H164.042C167.407 250.353 170.135 253.081 170.135 256.446C170.135 259.811 167.407 262.539 164.042 262.539H107.522V263.032H69.7949C66.2939 263.032 63.4557 265.87 63.4557 269.371C63.4557 272.872 66.2938 275.71 69.7949 275.71H107.522V275.832H129.484C132.849 275.832 135.576 278.56 135.576 281.925C135.576 285.289 132.849 288.017 129.484 288.017H107.522V288.389H55.498C51.9969 288.389 49.1588 291.227 49.1588 294.728C49.1588 298.229 51.997 301.067 55.498 301.067H107.522V301.31H132.142C135.507 301.31 138.235 304.038 138.235 307.403C138.235 310.768 135.507 313.496 132.142 313.496H107.522V313.745H95.0595C91.5585 313.745 88.7203 316.583 88.7203 320.084C88.7203 323.585 91.5585 326.424 95.0595 326.424H155.042L155.059 326.424H189.315C192.816 326.424 195.655 329.262 195.655 332.763C195.655 336.264 192.816 339.102 189.315 339.102H107.522L66.4655 339.102C62.9644 339.102 60.1263 341.94 60.1263 345.441C60.1263 348.942 62.9644 351.78 66.4655 351.78H107.522V352.267H142.776C146.141 352.267 148.868 354.995 148.868 358.36C148.868 361.725 146.141 364.453 142.776 364.453H107.522V364.459H83.1128C79.6117 364.459 76.7736 367.297 76.7736 370.798C76.7736 374.299 79.6117 377.137 83.1128 377.137L107.522 377.137H175.018C178.519 377.137 181.357 379.975 181.357 383.476C181.357 386.977 178.519 389.815 175.018 389.815H107.522H60.1979H0V250.353ZM182.409 301.067C178.908 301.067 176.07 303.905 176.07 307.406C176.07 310.907 178.908 313.745 182.409 313.745H202.046C205.547 313.745 208.385 310.907 208.385 307.406C208.385 303.905 205.547 301.067 202.046 301.067H182.409Z" fill="#37DEAD"/>
    </g>
    <g clip-path="url(#clip3_1191_1718)">
    <path fill-rule="evenodd" clip-rule="evenodd" d="M60.1459 376.638H0V514.877H58.9557C59.5115 515.027 60.0963 515.108 60.6998 515.108H173.236C176.907 515.108 179.882 512.132 179.882 508.461C179.882 504.79 176.907 501.815 173.236 501.815H157.545C156.793 502.133 155.966 502.309 155.097 502.309H83.0571C79.5868 502.309 76.7736 499.496 76.7736 496.026C76.7736 492.556 79.5868 489.742 83.0572 489.742L107.522 489.742L155.097 489.742L181.146 489.742C184.616 489.742 187.429 486.929 187.429 483.459C187.429 479.988 184.616 477.175 181.146 477.175H155.097H107.522H66.4099C62.9395 477.175 60.1263 474.362 60.1263 470.892C60.1263 467.421 62.9395 464.608 66.4099 464.608H107.522V464.151H153.409C156.774 464.151 159.502 461.423 159.502 458.058C159.502 455.02 157.278 452.502 154.37 452.041H95.0039C91.5336 452.041 88.7203 449.228 88.7203 445.757C88.7203 442.287 91.5336 439.474 95.0039 439.474H135.361C138.054 438.625 140.007 436.107 140.007 433.134C140.007 430.282 138.211 427.85 135.689 426.907H55.4424C51.9721 426.907 49.1588 424.093 49.1588 420.623C49.1588 417.153 51.9721 414.339 55.4424 414.339H125.338C128.804 414.334 131.611 411.523 131.611 408.056C131.611 404.585 128.798 401.772 125.328 401.772H107.522L69.7393 401.772C66.2689 401.772 63.4557 398.959 63.4557 395.489C63.4557 392.018 66.269 389.205 69.7393 389.205H107.522V388.823H150.751C154.115 388.823 156.843 386.095 156.843 382.731C156.843 379.366 154.115 376.638 150.751 376.638H107.522H60.1459Z" fill="#37DEAD"/>
    </g>
    </g>
    <defs>
    <clipPath id="clip0_1191_1718">
    <rect width="216.214" height="125.177" fill="white"/>
    </clipPath>
    <clipPath id="clip1_1191_1718">
    <rect width="216.214" height="125.177" fill="white" transform="translate(0 125.177)"/>
    </clipPath>
    <clipPath id="clip2_1191_1718">
    <rect width="216.214" height="126.285" fill="white" transform="translate(0 250.353)"/>
    </clipPath>
    <clipPath id="clip3_1191_1718">
    <rect width="216.214" height="137.362" fill="white" transform="translate(0 376.638)"/>
    </clipPath>
    </defs>
    </svg>
    